<?xml version="1.0" encoding="utf-8"?>
<!-- Generator: Adobe Illustrator 15.0.0, SVG Export Plug-In . SVG Version: 6.00 Build 0)  -->
<!DOCTYPE svg PUBLIC "-//W3C//DTD SVG 1.1//EN" "http://www.w3.org/Graphics/SVG/1.1/DTD/svg11.dtd">
<svg version="1.1" id="Layer_1" xmlns="http://www.w3.org/2000/svg" xmlns:xlink="http://www.w3.org/1999/xlink" x="0px" y="0px"
	 width="50px" height="50px" viewBox="0 0 50 50" enable-background="new 0 0 50 50" xml:space="preserve">
<path fill="none" stroke="#010101" stroke-linecap="round" stroke-linejoin="round" stroke-miterlimit="10" d="M31.115,20.018
	c-1.441-0.551-3.041-0.522-3.176-0.949v-0.641c1.439-0.004,2.01-0.464,2.01-0.464c-0.6-0.338-0.791-2.697-0.791-2.697
	c0-1.222-0.92-2.41-2.314-2.41c-1.313,0-2.315,1.113-2.315,2.41c0,0-0.191,2.359-0.791,2.697c0,0,0.571,0.46,2.01,0.464v0.641
	c-0.134,0.426-1.735,0.397-3.175,0.949c-0.123,0.047-0.205,0.166-0.205,0.297v1.12c0,0.175,0.143,0.318,0.317,0.318h8.317
	c0.175,0,0.316-0.143,0.316-0.318v-1.12C31.318,20.184,31.238,20.064,31.115,20.018z"/>
<path fill="none" stroke="#010101" stroke-linecap="round" stroke-linejoin="round" stroke-miterlimit="10" d="M24.117,34.379
	c-1.442-0.557-3.042-1.248-3.177-1.68v-0.451c0.299-0.307,0.535-0.733,0.675-1.233c0.333-0.233,0.42-0.718,0.141-1.062V28.94
	c0-1.045-0.582-1.761-1.913-1.761c-1.296,0-1.913,0.716-1.913,1.761v1.013c-0.278,0.342-0.192,0.827,0.141,1.062
	c0.14,0.5,0.376,0.927,0.675,1.233v0.451c-0.134,0.43-1.735,1.123-3.177,1.68c-0.122,0.049-0.204,0.168-0.204,0.302v1.131
	c0,0.178,0.142,0.321,0.317,0.321h8.322c0.175,0,0.317-0.144,0.317-0.321v-1.131C24.321,34.547,24.24,34.426,24.117,34.379z"/>
<path fill="none" stroke="#010101" stroke-linecap="round" stroke-linejoin="round" stroke-miterlimit="10" d="M38.117,34.379
	c-1.44-0.557-3.041-1.248-3.176-1.68v-0.451c0.299-0.307,0.534-0.733,0.674-1.233c0.334-0.233,0.42-0.718,0.142-1.062V28.94
	c0-1.045-0.582-1.761-1.912-1.761c-1.296,0-1.914,0.716-1.914,1.761v1.013c-0.278,0.342-0.19,0.827,0.142,1.062
	c0.14,0.5,0.375,0.927,0.674,1.233v0.451c-0.133,0.43-1.733,1.123-3.176,1.68c-0.123,0.049-0.203,0.168-0.203,0.302v1.131
	c0,0.178,0.142,0.321,0.316,0.321h8.321c0.175,0,0.317-0.144,0.317-0.321v-1.131C38.322,34.547,38.24,34.426,38.117,34.379z"/>
<polyline fill="none" stroke="#010101" stroke-linecap="round" stroke-linejoin="round" stroke-miterlimit="10" points="
	26.844,24.28 26.844,27.627 24.33,30.141 "/>
<line fill="none" stroke="#010101" stroke-linecap="round" stroke-linejoin="round" stroke-miterlimit="10" x1="26.844" y1="27.627" x2="29.343" y2="30.126"/>
</svg>
