<?xml version="1.0" encoding="utf-8"?>
<!-- Generator: Adobe Illustrator 15.0.0, SVG Export Plug-In . SVG Version: 6.00 Build 0)  -->
<!DOCTYPE svg PUBLIC "-//W3C//DTD SVG 1.1//EN" "http://www.w3.org/Graphics/SVG/1.1/DTD/svg11.dtd">
<svg version="1.1" id="Layer_1" xmlns="http://www.w3.org/2000/svg" xmlns:xlink="http://www.w3.org/1999/xlink" x="0px" y="0px"
	 width="18.5px" height="25.334px" viewBox="0 0 18.5 25.334" enable-background="new 0 0 18.5 25.334" xml:space="preserve">
<path fill="none" stroke="#010101" stroke-linecap="round" stroke-linejoin="round" stroke-miterlimit="10" d="M11.79,3.432
	c0,1.225-1.117,2.934-2.494,2.934c-1.376,0-2.492-1.709-2.492-2.934S7.92,1.214,9.296,1.214C10.673,1.214,11.79,2.207,11.79,3.432z"
	/>
<path fill="none" stroke="#010101" stroke-linecap="round" stroke-linejoin="round" stroke-miterlimit="10" d="M3.698,17.547
	l0.074-3.914c0-2.127,1.41-3.963,3.405-4.739c0.938,1.485,3.271,1.528,4.237,0c1.994,0.776,3.404,2.612,3.404,4.739l0.076,3.914"/>
<path fill="none" stroke="#010101" stroke-linecap="round" stroke-linejoin="round" stroke-miterlimit="10" d="M12.549,21.379
	c0.653,0.5,0.854,1.424,0.433,2.154c-0.459,0.793-1.479,1.067-2.272,0.609l-1.524-0.881"/>
<path fill="none" stroke="#010101" stroke-linecap="round" stroke-linejoin="round" stroke-miterlimit="10" d="M5.925,21.062
	L1.87,18.721c-0.793-0.459-1.068-1.481-0.61-2.274s1.481-1.065,2.274-0.608l5.705,3.295"/>
<path fill="none" stroke="#010101" stroke-linecap="round" stroke-linejoin="round" stroke-miterlimit="10" d="M5.204,23.217
	l0.363,0.631c0.357,0.619,1.157,0.834,1.777,0.476l9.467-5.465c0.62-0.356,0.834-1.158,0.477-1.776l-0.362-0.63
	c-0.356-0.618-1.158-0.836-1.778-0.477L5.683,21.44C5.06,21.797,4.846,22.599,5.204,23.217z"/>
</svg>
